<?xml version="1.0" standalone="no"?>
<!DOCTYPE svg PUBLIC "-//W3C//DTD SVG 20010904//EN"
 "http://www.w3.org/TR/2001/REC-SVG-20010904/DTD/svg10.dtd">
<svg version="1.0" xmlns="http://www.w3.org/2000/svg"
 width="1200.000000pt" height="650.000000pt" viewBox="0 0 1200.000000 650.000000"
 preserveAspectRatio="xMidYMid meet">
<metadata>
Created by potrace 1.15, written by Peter Selinger 2001-2017
</metadata>
<g transform="translate(0.000000,650.000000) scale(0.100000,-0.100000)"
fill="#000000" stroke="none">
<path d="M5555 6050 c-88 -4 -161 -8 -162 -8 -2 -1 -3 -22 -3 -47 0 -43 1 -45
28 -45 l29 0 6 -97 c4 -54 7 -133 7 -175 l0 -78 -30 0 c-29 0 -30 -1 -30 -51
l0 -52 92 7 c50 3 109 6 130 6 l39 0 -3 48 -3 47 -37 -2 -38 -2 0 69 0 69 70
7 71 7 -3 46 -3 46 -72 -3 -73 -4 0 55 0 54 38 7 c20 3 56 6 80 6 l42 0 0 -40
0 -40 55 0 55 0 0 90 0 90 -62 -2 c-35 -1 -135 -5 -223 -8z"/>
<path d="M6080 6045 c0 -5 -3 -27 -6 -47 -7 -37 -6 -38 26 -38 l33 0 -7 -152
c-9 -194 -10 -198 -47 -198 -28 0 -29 -2 -29 -50 l0 -50 48 0 c27 0 83 -3 125
-6 l77 -7 0 52 0 51 -35 0 c-39 0 -41 5 -29 94 l7 47 68 -7 c65 -6 69 -5 69
13 0 11 3 35 6 52 6 29 5 31 -23 31 -17 0 -50 3 -74 6 l-44 6 3 55 4 56 51 -7
c29 -3 64 -6 80 -6 25 0 27 -3 27 -39 l0 -39 51 -7 c27 -4 52 -5 54 -4 1 2 6
43 10 92 l7 87 -33 1 c-19 0 -121 6 -226 12 -128 8 -193 9 -193 2z"/>
<path d="M4820 5991 c-140 -46 -222 -165 -206 -299 18 -149 113 -241 258 -250
93 -6 159 18 218 78 135 134 93 376 -79 453 -49 21 -151 31 -191 18z m109
-101 c51 -14 90 -57 107 -118 37 -127 -28 -232 -144 -232 -84 0 -152 84 -152
190 0 74 24 119 80 148 50 25 61 26 109 12z"/>
<path d="M6764 5965 c-8 -44 0 -65 26 -65 25 0 25 -7 0 -168 -30 -191 -26
-179 -60 -174 -26 4 -29 1 -35 -32 -4 -20 -5 -42 -2 -49 3 -8 81 -24 222 -46
175 -28 218 -32 225 -21 4 7 11 38 15 69 3 31 9 66 12 78 4 19 0 23 -34 28
-21 4 -45 9 -54 11 -13 4 -18 -6 -24 -42 l-7 -46 -41 6 c-23 4 -62 10 -85 13
l-44 6 7 55 c11 91 6 89 126 66 28 -5 39 12 39 67 0 23 -5 28 -37 33 -103 18
-96 12 -90 68 4 28 8 52 9 54 2 1 39 -2 82 -8 l78 -11 -6 -42 -5 -43 51 -6
c27 -4 52 -5 55 -3 2 3 10 41 17 86 13 80 13 81 -8 86 -31 7 -401 65 -414 65
-6 0 -14 -16 -18 -35z"/>
<path d="M4261 5883 c-13 -3 -26 -13 -28 -24 -5 -16 -12 -18 -62 -13 -109 12
-202 -38 -255 -135 -57 -106 -44 -231 34 -330 50 -63 107 -91 187 -91 122 0
220 55 269 152 14 28 24 51 22 53 -10 8 -69 35 -77 35 -6 0 -18 -15 -27 -32
-27 -53 -55 -77 -108 -93 -66 -20 -113 -7 -159 44 -60 66 -72 147 -34 221 39
76 126 101 207 60 28 -14 40 -28 45 -50 8 -34 5 -34 56 -18 44 13 43 -1 4 143
-22 82 -27 87 -74 78z"/>
<path d="M7475 5871 c-2 -5 -7 -27 -11 -49 -5 -32 -3 -42 7 -42 41 -1 42 -14
4 -151 -57 -212 -51 -199 -84 -189 -28 8 -29 6 -41 -36 -7 -25 -11 -46 -9 -49
4 -3 407 -114 433 -119 6 -1 55 150 56 174 0 6 -81 30 -99 30 -5 0 -12 -16
-15 -35 -4 -19 -11 -37 -17 -40 -14 -9 -151 28 -156 42 -6 15 25 123 35 123 4
0 32 -7 62 -15 72 -19 68 -21 79 23 14 49 14 62 -2 62 -7 0 -37 7 -66 16 -52
15 -52 16 -45 47 3 18 10 42 15 53 l7 21 77 -20 76 -20 -7 -42 -6 -42 48 -12
c56 -14 56 -15 80 82 13 54 14 71 4 77 -6 4 -64 21 -128 39 -65 17 -156 42
-204 55 -49 13 -90 21 -93 17z"/>
<path d="M5194 4986 c-71 -32 -66 -121 7 -150 22 -9 46 -16 53 -16 8 0 22 -7
31 -16 37 -37 -32 -59 -90 -28 -27 14 -30 14 -42 -2 -18 -25 -16 -32 15 -47
74 -38 151 -27 178 24 29 57 -1 108 -72 125 -44 10 -74 32 -68 49 7 18 56 20
85 4 22 -12 49 3 49 27 0 32 -97 52 -146 30z"/>
<path d="M5980 4988 c-45 -12 -53 -21 -45 -47 5 -16 12 -20 31 -15 l24 6 0
-111 0 -111 30 0 30 0 0 145 c0 161 4 154 -70 133z"/>
<path d="M6185 4987 c-58 -26 -73 -110 -29 -154 22 -22 32 -25 78 -21 47 4 53
2 49 -13 -10 -39 -50 -48 -105 -25 -11 5 -20 1 -28 -15 -11 -19 -10 -25 5 -36
56 -40 145 -16 178 47 14 26 17 52 15 103 -3 56 -8 71 -29 93 -31 31 -91 40
-134 21z"/>
<path d="M6473 4985 c-39 -17 -53 -42 -53 -94 0 -56 36 -84 102 -79 52 3 61
-8 31 -37 -16 -16 -48 -17 -84 -1 -11 5 -21 -1 -32 -18 -16 -24 -16 -25 29
-42 42 -16 51 -16 88 -3 33 11 46 23 64 59 40 80 23 184 -37 214 -36 19 -66
20 -108 1z"/>
<path d="M6765 4991 c-62 -26 -80 -108 -35 -156 22 -23 31 -26 77 -23 57 3 66
-7 35 -35 -21 -19 -54 -22 -82 -7 -15 8 -22 5 -35 -12 -14 -21 -14 -24 1 -35
53 -39 144 -19 178 39 23 38 27 130 8 175 -21 50 -93 76 -147 54z"/>
<path d="M4860 4850 l0 -140 110 0 110 0 0 25 c0 25 -1 25 -80 25 l-80 0 0 30
c0 29 0 29 68 32 65 3 67 4 70 31 l3 27 -70 0 -71 0 0 30 0 30 80 0 c79 0 80
0 80 25 l0 25 -110 0 -110 0 0 -140z"/>
<path d="M5410 4966 c0 -22 5 -25 43 -28 l42 -3 3 -112 3 -113 29 0 30 0 0
115 0 115 45 0 c41 0 45 2 45 25 l0 25 -120 0 -120 0 0 -24z"/>
<path d="M1799 4296 c-148 -40 -235 -215 -199 -398 23 -121 76 -206 240 -388
62 -69 126 -145 143 -169 88 -129 90 -293 3 -332 -81 -37 -166 71 -183 233
l-6 58 -88 0 -89 0 0 -255 0 -255 80 0 79 0 7 35 c8 42 13 43 45 9 37 -40 116
-74 174 -74 140 0 250 86 291 229 21 72 21 201 0 276 -19 64 -70 165 -114 224
-15 20 -85 103 -156 186 -174 202 -181 213 -181 291 0 56 3 66 29 93 76 79
170 -5 192 -171 l7 -48 88 0 89 0 0 215 0 216 -82 -3 c-82 -3 -83 -3 -86 -30
-2 -16 -6 -28 -9 -28 -3 0 -25 17 -49 39 -65 57 -135 72 -225 47z"/>
<path d="M7573 4295 c-138 -39 -229 -151 -273 -338 -43 -182 -46 -644 -4 -828
39 -174 105 -279 211 -331 62 -30 75 -33 163 -33 84 0 102 3 152 28 172 85
248 310 248 742 0 429 -80 661 -254 741 -67 31 -173 39 -243 19z m139 -216
c31 -17 56 -87 69 -192 17 -144 6 -734 -14 -806 -23 -77 -50 -103 -106 -99
-92 6 -110 77 -118 463 -5 273 5 478 28 555 24 78 82 111 141 79z"/>
<path d="M2340 4020 l0 -250 85 0 85 0 0 150 0 150 65 0 65 0 0 -535 0 -535
-50 0 -50 0 0 -105 0 -105 225 0 225 0 0 105 0 105 -50 0 -50 0 0 535 0 535
65 0 65 0 0 -150 0 -150 85 0 85 0 0 250 0 250 -425 0 -425 0 0 -250z"/>
<path d="M3260 4170 l0 -100 45 0 45 0 0 -417 c0 -230 4 -468 9 -528 16 -184
66 -276 179 -332 52 -25 66 -28 167 -27 89 0 118 4 155 21 61 27 105 66 136
119 55 94 57 108 61 657 l5 507 44 0 44 0 0 100 0 100 -180 0 -180 0 0 -100 0
-100 40 0 40 0 0 -470 c0 -295 -4 -488 -11 -519 -15 -73 -48 -101 -116 -101
-70 0 -90 12 -116 68 -21 46 -22 60 -25 535 l-4 487 41 0 41 0 0 100 0 100
-210 0 -210 0 0 -100z"/>
<path d="M4250 4170 l0 -100 45 0 45 0 0 -535 0 -535 -45 0 -45 0 0 -105 0
-105 185 0 185 0 0 105 0 105 -45 0 -45 0 1 423 c0 232 4 413 8 402 4 -11 61
-215 127 -452 71 -257 124 -433 131 -433 15 0 13 -7 143 475 61 226 112 415
114 420 3 6 5 -180 5 -412 l1 -422 -42 -3 -43 -3 -3 -103 -3 -102 218 2 218 3
0 100 0 100 -47 3 -48 3 0 535 0 534 50 0 50 0 0 100 0 100 -204 0 -205 0 -15
-52 c-8 -29 -45 -172 -81 -318 -37 -146 -71 -271 -75 -278 -4 -8 -43 131 -90
317 l-83 331 -203 0 -204 0 0 -100z"/>
<path d="M5490 4170 l0 -100 45 0 45 0 0 -534 0 -535 -42 -3 -43 -3 -3 -102
-3 -103 231 0 230 0 0 105 0 105 -60 0 -60 0 0 179 0 178 78 6 c228 17 353
136 383 366 29 222 -49 418 -194 492 -82 43 -130 49 -374 49 l-233 0 0 -100z
m460 -122 c67 -46 99 -166 80 -301 -18 -125 -59 -176 -149 -185 l-51 -5 0 257
0 256 44 0 c28 0 54 -8 76 -22z"/>
<path d="M6360 4020 l0 -250 85 0 85 0 0 150 0 150 65 0 65 0 0 -535 0 -535
-50 0 -50 0 0 -105 0 -105 225 0 225 0 0 105 0 105 -50 0 -50 0 0 535 0 535
65 0 65 0 0 -150 0 -150 85 0 85 0 0 250 0 250 -425 0 -425 0 0 -250z"/>
<path d="M8060 4170 l0 -100 45 0 c27 0 45 -5 45 -11 0 -11 204 -1182 216
-1242 l6 -28 116 3 117 3 36 225 c20 124 49 306 64 404 17 106 31 172 35 160
4 -10 36 -193 71 -406 l64 -388 117 0 116 0 6 28 c3 15 49 290 101 612 52 322
98 597 101 613 5 24 10 27 50 27 l44 0 0 100 0 100 -170 0 -170 0 0 -100 0
-100 35 0 c27 0 35 -4 35 -17 0 -10 -26 -188 -57 -396 -37 -247 -60 -371 -65
-355 -4 12 -39 226 -78 473 -39 248 -74 460 -77 473 -5 22 -9 23 -97 20 l-91
-3 -77 -478 c-42 -264 -78 -481 -81 -483 -4 -4 -128 736 -127 759 0 4 16 7 35
7 l35 0 0 100 0 100 -200 0 -200 0 0 -100z"/>
<path d="M9490 4170 l0 -100 50 0 50 0 0 -534 0 -535 -47 -3 -48 -3 0 -100 0
-100 185 0 185 0 0 100 0 100 -47 3 -48 3 0 370 c0 203 2 369 5 369 2 0 74
-214 160 -475 l156 -475 119 0 120 0 0 640 0 640 45 0 45 0 0 100 0 100 -185
0 -185 0 0 -100 0 -100 45 0 45 0 0 -332 0 -333 -143 430 -143 430 -182 3
-182 2 0 -100z"/>
<path d="M3700 2100 l0 -170 35 0 35 0 0 55 c0 54 1 55 29 55 23 0 35 -10 65
-55 34 -52 39 -55 77 -55 44 0 44 -3 -3 67 -15 23 -28 44 -28 47 0 2 14 18 30
34 24 25 30 39 30 76 0 85 -52 115 -197 116 l-73 0 0 -170z"/>
<path d="M4180 2259 c-42 -17 -90 -71 -101 -113 -32 -120 59 -224 187 -214 96
8 154 72 154 168 0 63 -22 106 -72 143 -32 24 -128 33 -168 16z m126 -74 c30
-20 47 -69 40 -108 -15 -81 -113 -109 -168 -48 -60 67 -20 171 66 171 23 0 51
-7 62 -15z"/>
<path d="M4643 2253 c-4 -10 -35 -85 -70 -166 -35 -82 -63 -151 -63 -153 0 -2
16 -4 35 -4 32 0 37 4 51 40 l16 40 69 0 69 0 20 -40 c18 -35 25 -40 55 -40
l35 0 -13 33 c-8 17 -40 94 -72 170 l-58 137 -34 0 c-23 0 -36 -6 -40 -17z"/>
<path d="M5024 2260 c-33 -13 -54 -50 -54 -96 0 -51 19 -70 96 -93 64 -19 85
-40 65 -65 -18 -21 -47 -20 -98 3 l-41 19 -21 -22 c-25 -27 -19 -35 42 -61 70
-29 162 -12 187 34 15 29 12 83 -5 108 -9 13 -40 30 -73 39 -68 21 -82 30 -82
55 0 27 40 33 86 14 38 -16 40 -15 56 6 25 30 23 35 -22 53 -44 17 -102 20
-136 6z"/>
<path d="M5317 2263 c-4 -3 -7 -19 -7 -35 0 -27 1 -28 55 -28 l55 0 0 -135 0
-135 35 0 35 0 0 135 0 135 50 0 50 0 0 35 0 35 -133 0 c-74 0 -137 -3 -140
-7z"/>
<path d="M5714 2257 c-2 -7 -3 -82 -2 -167 l3 -155 125 0 125 0 0 30 0 30 -93
3 -93 3 3 32 3 32 78 3 77 3 0 29 0 29 -77 3 -78 3 -3 33 -3 32 90 0 91 0 0
35 0 35 -120 0 c-89 0 -122 -3 -126 -13z"/>
<path d="M6100 2100 l0 -173 94 5 c107 6 146 23 183 78 32 46 32 134 1 180
-35 51 -85 72 -189 78 l-89 5 0 -173z m174 90 c36 -13 60 -68 52 -113 -9 -51
-46 -77 -107 -77 l-49 0 0 100 0 100 39 0 c22 0 51 -4 65 -10z"/>
<path d="M6750 2100 l0 -172 88 4 c152 7 207 52 207 168 0 115 -54 159 -207
168 l-88 5 0 -173z m180 85 c39 -20 58 -81 40 -125 -18 -43 -47 -60 -102 -60
l-48 0 0 100 0 100 40 0 c23 0 54 -7 70 -15z"/>
<path d="M7276 2262 c-12 -19 -136 -314 -136 -323 0 -5 15 -9 33 -9 30 0 36 4
50 40 l15 40 70 0 69 0 18 -40 c16 -35 22 -40 52 -40 18 0 33 4 33 8 0 5 -30
80 -68 168 -65 154 -69 159 -99 162 -17 2 -34 -1 -37 -6z"/>
<path d="M7610 2100 l0 -170 35 0 35 0 0 170 0 170 -35 0 -35 0 0 -170z"/>
<path d="M7830 2100 l0 -170 120 0 120 0 0 35 0 35 -85 0 -85 0 0 135 0 135
-35 0 -35 0 0 -170z"/>
<path d="M8100 2266 c0 -3 27 -47 60 -99 55 -89 59 -99 62 -163 l3 -69 35 0
35 0 3 69 c3 64 7 74 62 162 33 51 60 96 60 99 0 3 -17 5 -38 5 -36 0 -40 -3
-76 -65 -21 -36 -41 -65 -45 -65 -4 0 -24 29 -44 65 -36 63 -39 65 -77 65 -22
0 -40 -2 -40 -4z"/>
<path d="M3371 1592 l-20 -47 30 -14 c16 -8 29 -17 29 -20 0 -4 -34 -83 -75
-176 -44 -100 -80 -169 -87 -168 -7 1 -22 5 -33 8 -17 5 -24 -1 -38 -30 -9
-20 -17 -41 -17 -48 0 -7 53 -36 118 -64 l117 -51 21 47 22 46 -29 14 c-35 17
-35 20 -1 94 l27 58 65 -33 c83 -42 85 -57 31 -179 -39 -90 -39 -90 -18 -99
12 -4 53 -22 90 -39 38 -17 70 -31 72 -31 4 0 45 89 45 95 0 2 -15 9 -34 15
l-34 11 25 62 c18 45 24 73 20 104 -4 35 -2 43 12 43 29 0 77 37 94 73 23 47
22 114 -2 153 -27 45 -74 77 -169 118 -45 20 -118 51 -161 70 l-79 34 -21 -46z
m226 -157 c31 -14 65 -33 75 -42 38 -34 10 -113 -40 -113 -29 0 -152 49 -152
60 0 12 49 120 55 120 2 0 30 -11 62 -25z"/>
<path d="M8648 1574 c-16 -8 -28 -21 -28 -28 0 -10 -15 -14 -52 -14 -66 -1
-167 -49 -204 -97 -72 -94 -36 -230 71 -270 43 -17 50 -17 173 4 132 23 156
21 172 -10 47 -87 -207 -174 -259 -89 l-16 27 -44 -19 c-26 -11 -41 -23 -38
-31 48 -116 81 -187 86 -185 3 2 23 10 44 18 28 11 37 19 34 32 -5 16 2 18 49
18 152 0 291 122 269 237 -10 54 -41 110 -72 130 -35 23 -119 23 -240 -1 -51
-10 -104 -15 -117 -12 -30 7 -43 44 -27 75 16 30 85 62 146 68 44 5 56 2 72
-14 11 -11 22 -26 25 -34 4 -11 13 -10 51 5 l46 17 -36 82 c-19 45 -37 88 -40
95 -7 16 -32 15 -65 -4z"/>
<path d="M4187 1300 c-134 -34 -224 -145 -235 -291 -6 -88 16 -154 74 -218 66
-73 139 -106 234 -105 129 1 230 65 283 182 34 72 31 199 -5 268 -65 123 -221
196 -351 164z m178 -136 c14 -9 35 -32 47 -52 46 -74 18 -217 -54 -277 -57
-48 -146 -52 -207 -8 -33 24 -71 98 -71 138 0 79 50 178 104 207 53 29 130 25
181 -8z"/>
<path d="M7775 1265 c-66 -18 -139 -38 -162 -44 -46 -13 -48 -17 -32 -74 10
-36 12 -37 44 -31 27 5 34 2 39 -13 3 -10 24 -85 46 -168 22 -82 43 -158 46
-168 4 -13 -3 -20 -25 -28 -17 -6 -31 -17 -31 -23 0 -12 20 -77 25 -84 2 -2
199 49 242 63 14 4 -8 101 -23 99 -5 -1 -20 -4 -34 -7 -25 -6 -27 -3 -43 59
-10 36 -15 69 -13 73 7 11 86 31 121 31 33 0 58 -41 80 -129 24 -99 19 -96
120 -69 48 12 89 28 92 34 2 7 -1 30 -7 53 -10 38 -13 41 -38 35 -15 -4 -31
-7 -35 -8 -5 0 -19 30 -32 68 -20 63 -38 89 -68 99 -6 2 0 17 13 34 19 27 22
40 18 88 -5 64 -28 102 -79 127 -50 26 -127 21 -264 -17z m212 -110 c27 -57
10 -79 -84 -108 -54 -17 -80 -21 -85 -13 -3 6 -13 36 -21 68 l-15 56 52 15
c28 9 70 16 94 16 39 1 44 -2 59 -34z"/>
<path d="M7115 1132 l-230 -37 3 -35 c6 -63 10 -69 46 -63 l32 5 27 -179 c34
-223 34 -213 -4 -213 l-32 0 7 -52 c4 -29 8 -54 9 -55 3 -3 498 75 502 79 3 3
-26 191 -30 196 -2 2 -28 1 -59 -3 l-56 -7 6 -52 6 -52 -78 -12 c-118 -18
-111 -22 -124 59 -7 39 -10 73 -7 75 3 3 38 10 77 16 l72 11 -5 50 c-4 27 -8
51 -10 54 -2 2 -37 -1 -76 -8 -40 -6 -74 -9 -76 -7 -2 2 -8 30 -13 61 -10 65
-20 57 99 76 84 14 79 15 79 -11 0 -13 3 -33 6 -46 6 -20 11 -22 43 -17 86 14
79 4 65 102 -8 49 -14 91 -14 96 0 10 -10 9 -265 -31z"/>
<path d="M4886 1122 c-10 -62 -8 -70 19 -74 24 -3 22 -9 -83 -183 -105 -175
-109 -180 -139 -177 -29 3 -31 1 -38 -43 -3 -26 -4 -49 -1 -52 6 -6 238 -44
242 -40 1 1 5 26 9 55 l7 52 -31 0 c-35 0 -39 14 -13 48 l19 24 104 -17 c57
-9 104 -17 105 -18 1 -1 4 -17 7 -34 6 -32 5 -33 -27 -33 -32 0 -34 -2 -41
-46 -3 -25 -5 -48 -2 -50 6 -6 251 -43 256 -38 2 2 6 26 9 53 4 48 4 50 -24
53 -29 3 -29 4 -76 198 -26 107 -48 198 -48 203 0 4 11 7 25 7 14 0 25 3 25 8
1 4 5 26 9 50 5 23 7 42 4 42 -4 0 -249 38 -284 44 -24 5 -27 1 -33 -32z"/>
<path d="M5705 1075 c-5 -2 -27 -6 -48 -10 -50 -8 -113 -65 -128 -115 -24 -79
12 -169 80 -204 14 -8 71 -26 126 -41 54 -15 107 -32 117 -39 45 -28 28 -79
-32 -97 -83 -25 -220 32 -220 91 0 29 -2 30 -44 30 -41 0 -44 -2 -50 -31 -3
-17 -6 -67 -6 -110 l0 -79 50 0 c39 0 50 4 50 16 0 9 3 14 8 12 84 -44 172
-57 251 -38 92 22 141 85 141 182 0 100 -43 135 -219 182 -105 28 -141 48
-141 76 0 40 35 60 103 60 81 0 140 -31 145 -75 5 -36 16 -45 63 -45 l36 0 5
103 c3 56 5 103 4 104 0 0 -22 4 -48 8 -41 6 -48 5 -48 -10 0 -9 -3 -15 -7
-13 -61 31 -158 53 -188 43z"/>
<path d="M6422 1065 c-123 -7 -225 -15 -228 -18 -3 -3 -2 -53 2 -111 l7 -106
60 0 59 0 -4 60 -4 60 34 6 c18 4 37 3 42 -2 4 -5 12 -93 16 -196 l9 -188 -43
-6 -43 -6 7 -47 c4 -25 8 -47 9 -49 2 -2 67 0 145 4 l141 7 -3 51 -3 51 -40 0
c-47 0 -41 -23 -53 220 -6 112 -5 162 2 168 6 4 25 6 41 5 29 -3 30 -5 33 -60
l3 -58 59 0 60 0 0 33 c0 17 -3 69 -7 115 l-6 82 -36 -1 c-20 -1 -136 -7 -259
-14z"/>
</g>
</svg>
